# xmcd
#
# Track frame offsets: 
#        150
#        24470
#        59542
#        70122
#        89987
#        105660
#        121975
#        146462
#        173502
#
# Disc length: 2740 seconds
#
# Revision: 5
# Processed by: cddbd v1.4PL0 Copyright (c) Steve Scherf et al.
# Submitted via: ExactAudioCopy v0.90b4
#
DISCID=7a0ab209
DTITLE=Muddy Waters - Hard Again
DYEAR=1977
DGENRE=Blues
TTITLE0=Mannish Boy
TTITLE1=Bus Driver
TTITLE2=I Want To Be Loved
TTITLE3=Jealous Hearted Man
TTITLE4=I Can't Be Satisfied
TTITLE5=The Blues Had A Baby And They Named It Rock And Roll (#2)
TTITLE6=Deep Down In Florida
TTITLE7=Crosseyed Cat
TTITLE8=Little Girl
EXTD=ID3G:   0
EXTT0=
EXTT1=
EXTT2=
EXTT3=
EXTT4=
EXTT5=
EXTT6=
EXTT7=
EXTT8=
PLAYORDER=
